<svg width="29" height="26" viewBox="0 0 29 26" fill="none" xmlns="http://www.w3.org/2000/svg">
<path fill-rule="evenodd" clip-rule="evenodd" d="M3.61963 18.4254C3.9141 18.448 4.27035 18.4609 4.62825 18.4399C4.81889 19.4068 5.07241 21.2389 6.10952 22.276C7.04804 23.2145 8.32099 23.7418 9.64827 23.7418H11.9717C11.942 23.9041 11.9268 24.0698 11.9268 24.237C11.9268 24.4061 11.942 24.5716 11.9712 24.7322H9.64827C8.05832 24.7322 6.53351 24.1006 5.4092 22.9763C4.12711 21.6942 3.81886 19.662 3.61963 18.4254Z" fill="#3CB55A"/>
<path fill-rule="evenodd" clip-rule="evenodd" d="M4.12598 9.14848C4.56782 4.02264 8.86862 0 14.109 0C19.3493 0 23.6501 4.02264 24.092 9.14848H22.3232C21.8873 4.99632 18.376 1.7607 14.109 1.7607C9.84197 1.7607 6.33066 4.99632 5.89472 9.14848H4.12598Z" fill="black"/>
<path fill-rule="evenodd" clip-rule="evenodd" d="M6.34676 9.95294C6.34676 9.32019 5.8929 8.80725 5.33295 8.80725H3.22428C2.36914 8.80725 1.54901 9.19117 0.944361 9.87446C0.339717 10.5578 0 11.4846 0 12.451V15.2616C0 16.228 0.339717 17.1548 0.944361 17.8381C1.54901 18.5214 2.36914 18.9053 3.22428 18.9053H5.33295C5.8929 18.9053 6.34676 18.3924 6.34676 17.7596V9.95294Z" fill="black"/>
<path fill-rule="evenodd" clip-rule="evenodd" d="M3.63669 8.80725V18.9053H3.22428C2.36914 18.9053 1.54901 18.5214 0.944361 17.8381C0.339717 17.1548 0 16.228 0 15.2616V12.451C0 11.4846 0.339717 10.5578 0.944361 9.87446C1.54901 9.19117 2.36914 8.80725 3.22428 8.80725H3.63669Z" fill="black"/>
<path fill-rule="evenodd" clip-rule="evenodd" d="M28.2179 12.451C28.2179 11.4846 27.8781 10.5578 27.2735 9.87446C26.6688 9.19117 25.8487 8.80725 24.9936 8.80725H22.8849C22.3249 8.80725 21.8711 9.32019 21.8711 9.95294V17.7596C21.8711 18.3924 22.3249 18.9053 22.8849 18.9053H24.9936C25.8487 18.9053 26.6688 18.5214 27.2735 17.8381C27.8781 17.1548 28.2179 16.228 28.2179 15.2616V12.451Z" fill="black"/>
<path fill-rule="evenodd" clip-rule="evenodd" d="M24.5811 8.80725H24.9935C25.8486 8.80725 26.6687 9.19117 27.2734 9.87446C27.878 10.5578 28.2177 11.4846 28.2177 12.451V15.2616C28.2177 16.228 27.878 17.1548 27.2734 17.8381C26.6687 18.5214 25.8486 18.9053 24.9935 18.9053H24.5811V8.80725Z" fill="black"/>
<path fill-rule="evenodd" clip-rule="evenodd" d="M16.9513 24.237C16.9513 23.2633 16.1619 22.474 15.1883 22.474H13.0295C12.5619 22.474 12.1135 22.6598 11.7828 22.9904C11.4522 23.321 11.2665 23.7694 11.2665 24.237C11.2665 25.2107 12.0558 26 13.0295 26H15.1883C16.1619 26 16.9513 25.2107 16.9513 24.237Z" fill="#3CB55A"/>
</svg>
