<svg width="36" height="36" viewBox="0 0 36 36" fill="none" xmlns="http://www.w3.org/2000/svg">
<path d="M3.74622 6.7275V26.8762C3.75018 28.3609 4.34171 29.7836 5.39153 30.8334C6.44134 31.8833 7.86406 32.4748 9.34872 32.4788H16.9312C17.0392 31.6999 17.2629 30.9415 17.595 30.2288C18.5035 28.225 20.1465 26.6464 22.185 25.8188C21.4504 25.3105 20.8505 24.6311 20.4369 23.8393C20.0234 23.0475 19.8086 22.167 19.8112 21.2738C19.8127 19.7973 20.3999 18.3817 21.4439 17.3377C22.4879 16.2936 23.9035 15.7065 25.38 15.705C25.9176 15.703 26.4525 15.7826 26.9662 15.9412C27.8095 16.1907 28.5809 16.6382 29.2162 17.2463V6.7275C29.2161 5.24167 28.6258 3.81673 27.5751 2.76608C26.5245 1.71544 25.0996 1.12513 23.6137 1.125H9.34872C7.86347 1.12704 6.43964 1.71796 5.38941 2.76819C4.33918 3.81842 3.74826 5.24225 3.74622 6.7275ZM10.5412 6.705H22.4212C22.7196 6.705 23.0057 6.82353 23.2167 7.0345C23.4277 7.24548 23.5462 7.53163 23.5462 7.83C23.5462 8.12837 23.4277 8.41452 23.2167 8.62549C23.0057 8.83647 22.7196 8.955 22.4212 8.955H10.5412C10.2428 8.955 9.9567 8.83647 9.74572 8.62549C9.53474 8.41452 9.41622 8.12837 9.41622 7.83C9.41622 7.53163 9.53474 7.24548 9.74572 7.0345C9.9567 6.82353 10.2428 6.705 10.5412 6.705ZM10.5412 12.69H22.4212C22.7196 12.69 23.0057 12.8085 23.2167 13.0195C23.4277 13.2305 23.5462 13.5166 23.5462 13.815C23.5462 14.1134 23.4277 14.3995 23.2167 14.6105C23.0057 14.8215 22.7196 14.94 22.4212 14.94H10.5412C10.2428 14.94 9.9567 14.8215 9.74572 14.6105C9.53474 14.3995 9.41622 14.1134 9.41622 13.815C9.41622 13.5166 9.53474 13.2305 9.74572 13.0195C9.9567 12.8085 10.2428 12.69 10.5412 12.69ZM10.5412 18.6637H15.9412C16.2396 18.6637 16.5257 18.7823 16.7367 18.9933C16.9477 19.2042 17.0662 19.4904 17.0662 19.7887C17.0662 20.0871 16.9477 20.3733 16.7367 20.5842C16.5257 20.7952 16.2396 20.9137 15.9412 20.9137H10.5412C10.2428 20.9137 9.9567 20.7952 9.74572 20.5842C9.53474 20.3733 9.41622 20.0871 9.41622 19.7887C9.41622 19.4904 9.53474 19.2042 9.74572 18.9933C9.9567 18.7823 10.2428 18.6637 10.5412 18.6637Z" fill="white"/>
<path d="M25.38 25.155C27.5236 25.155 29.2613 23.4173 29.2613 21.2738C29.2613 19.1302 27.5236 17.3925 25.38 17.3925C23.2365 17.3925 21.4988 19.1302 21.4988 21.2738C21.4988 23.4173 23.2365 25.155 25.38 25.155Z" fill="white"/>
<path d="M19.6425 34.875H31.1287C31.4268 34.8741 31.7124 34.7553 31.9232 34.5445C32.134 34.3337 32.2528 34.0481 32.2537 33.75C32.2537 31.9285 31.5301 30.1815 30.2421 28.8935C28.9541 27.6055 27.2071 26.8819 25.3856 26.8819C23.564 26.8819 21.8171 27.6055 20.5291 28.8935C19.2411 30.1815 18.5175 31.9285 18.5175 33.75C18.5183 34.0481 18.6371 34.3338 18.8479 34.5446C19.0587 34.7554 19.3444 34.8742 19.6425 34.875Z" fill="white"/>
</svg>
