<svg width="44" height="44" viewBox="0 0 44 44" fill="none" xmlns="http://www.w3.org/2000/svg">
<path d="M41.36 37.8393H40.405V19.5538C40.405 17.7586 38.9442 16.2978 37.1666 16.2978H31.8866V5.87858C31.8866 4.10097 30.4257 2.64014 28.6482 2.64014H15.3426C13.565 2.64014 12.1042 4.10097 12.1042 5.87858V16.2978H6.82419C5.04658 16.2978 3.58575 17.7586 3.58575 19.5538V37.8393H2.64C1.66719 37.8393 0.880005 38.6273 0.880005 39.5993C0.880005 40.5712 1.66719 41.3593 2.64 41.3593C8.79817 41.3597 13.3843 41.3603 41.36 41.3593C42.3328 41.3593 43.12 40.5712 43.12 39.5993C43.12 38.6273 42.3328 37.8393 41.36 37.8393ZM33.365 20.4162C33.365 20.0994 33.6466 19.8178 33.981 19.8178H36.2866C36.621 19.8178 36.885 20.0994 36.885 20.4162V22.7569C36.885 23.0913 36.621 23.3554 36.2866 23.3554H33.981C33.6466 23.3554 33.365 23.0913 33.365 22.7569V20.4162ZM33.365 27.4913C33.365 27.1569 33.6466 26.893 33.981 26.893H36.2866C36.621 26.893 36.885 27.1569 36.885 27.4913V29.8322C36.885 30.1666 36.621 30.4305 36.2866 30.4305H33.981C33.6466 30.4305 33.365 30.1666 33.365 29.8322V27.4913ZM33.365 34.5666C33.365 34.2322 33.6466 33.9681 33.981 33.9681H36.2866C36.621 33.9681 36.885 34.2322 36.885 34.5666V36.8898C36.885 37.2242 36.621 37.5057 36.2866 37.5057H33.981C33.6466 37.5057 33.365 37.2242 33.365 36.8898V34.5666ZM17.6834 29.0401H26.325C26.6946 29.0401 26.9938 29.3393 26.9938 29.7266V31.8737C26.9938 32.261 26.6946 32.5601 26.325 32.5601H17.6834C17.2962 32.5601 16.997 32.261 16.997 31.8737V29.7266C16.997 29.3393 17.2962 29.0401 17.6834 29.0401ZM16.997 24.8337V22.6866C16.997 22.2994 17.2962 22.0001 17.6834 22.0001H26.325C26.6946 22.0001 26.9938 22.2994 26.9938 22.6866V24.8337C26.9938 25.221 26.6946 25.5201 26.325 25.5201H17.6834C17.2962 25.5201 16.997 25.221 16.997 24.8337ZM16.997 8.60656C16.997 8.21941 17.2962 7.92014 17.6834 7.92014H26.325C26.6946 7.92014 26.9938 8.21941 26.9938 8.60656V10.7538C26.9938 11.141 26.6946 11.4401 26.325 11.4401H17.6834C17.2962 11.4401 16.997 11.141 16.997 10.7538V8.60656ZM16.997 15.6466C16.997 15.2594 17.2962 14.9601 17.6834 14.9601H26.325C26.6946 14.9601 26.9938 15.2594 26.9938 15.6466C26.9938 15.8238 26.9938 17.971 26.9938 17.7938C26.9938 18.181 26.6946 18.4801 26.325 18.4801H17.6834C17.2962 18.4801 16.997 18.181 16.997 17.7938C16.997 17.6166 16.997 15.4693 16.997 15.6466ZM7.10575 20.4162C7.10575 20.0994 7.36979 19.8178 7.70419 19.8178H10.0274C10.3618 19.8178 10.6257 20.0994 10.6257 20.4162V22.7569C10.6257 23.0913 10.3618 23.3554 10.0274 23.3554H7.70419C7.36979 23.3554 7.10575 23.0913 7.10575 22.7569V20.4162ZM7.10575 27.4913C7.10575 27.1569 7.36979 26.893 7.70419 26.893H10.0274C10.3618 26.893 10.6257 27.1569 10.6257 27.4913V29.8322C10.6257 30.1666 10.3618 30.4305 10.0274 30.4305H7.70419C7.36979 30.4305 7.10575 30.1666 7.10575 29.8322V27.4913ZM7.10575 34.5666C7.10575 34.2322 7.36979 33.9681 7.70419 33.9681H10.0274C10.3618 33.9681 10.6257 34.2322 10.6257 34.5666V36.8898C10.6257 37.2242 10.3618 37.5057 10.0274 37.5057H7.70419C7.36979 37.5057 7.10575 37.2242 7.10575 36.8898V34.5666Z" fill="#252525"/>
</svg>
