<svg width="36" height="36" viewBox="0 0 36 36" fill="none" xmlns="http://www.w3.org/2000/svg">
<path d="M34.6766 21.7251H30.9165V14.2049H34.6766C35.3618 14.2049 35.93 13.6367 35.93 12.9515C35.93 12.2663 35.3618 11.6981 34.6766 11.6981H30.9165V9.60919C30.9165 7.06902 28.861 5.01349 26.3208 5.01349H24.2319V1.25337C24.2319 0.568195 23.6637 0 22.9785 0C22.2933 0 21.7251 0.568195 21.7251 1.25337V5.01349H14.2049V1.25337C14.2049 0.568195 13.6367 0 12.9515 0C12.2663 0 11.6981 0.568195 11.6981 1.25337V5.01349H9.60919C7.06902 5.01349 5.01349 7.06902 5.01349 9.60919V11.6981H1.25337C0.568195 11.6981 0 12.2663 0 12.9515C0 13.6367 0.568195 14.2049 1.25337 14.2049H5.01349V21.7251H1.25337C0.568195 21.7251 0 22.2933 0 22.9785C0 23.6637 0.568195 24.2319 1.25337 24.2319H5.01349V26.3208C5.01349 28.861 7.06902 30.9165 9.60919 30.9165H11.6981V34.6766C11.6981 35.3618 12.2663 35.93 12.9515 35.93C13.6367 35.93 14.2049 35.3618 14.2049 34.6766V30.9165H21.7251V34.6766C21.7251 35.3618 22.2933 35.93 22.9785 35.93C23.6637 35.93 24.2319 35.3618 24.2319 34.6766V30.9165H26.3208C28.861 30.9165 30.9165 28.861 30.9165 26.3208V24.2319H34.6766C35.3618 24.2319 35.93 23.6637 35.93 22.9785C35.93 22.2933 35.3618 21.7251 34.6766 21.7251ZM16.0599 21.2572C16.5445 21.7418 16.5445 22.544 16.0599 23.0286C15.8092 23.2793 15.4917 23.3963 15.1742 23.3963C14.8566 23.3963 14.5391 23.2793 14.2884 23.0286L10.1105 18.8507C9.6259 18.3661 9.6259 17.5639 10.1105 17.0793L14.2884 12.9014C14.7731 12.4167 15.5752 12.4167 16.0599 12.9014C16.5445 13.386 16.5445 14.1882 16.0599 14.6728L12.7677 17.965L16.0599 21.2572ZM25.8028 18.8507L21.6248 23.0286C21.3742 23.2793 21.0567 23.3963 20.7391 23.3963C20.4216 23.3963 20.1041 23.2793 19.8534 23.0286C19.3688 22.544 19.3688 21.7418 19.8534 21.2572L23.1456 17.965L19.8534 14.6728C19.3688 14.1882 19.3688 13.386 19.8534 12.9014C20.3381 12.4167 21.1402 12.4167 21.6248 12.9014L25.8028 17.0793C26.2874 17.5639 26.2874 18.3661 25.8028 18.8507Z" fill="white"/>
</svg>
