<svg width="36" height="36" viewBox="0 0 36 36" fill="none" xmlns="http://www.w3.org/2000/svg">
<g clip-path="url(#clip0_41_16)">
<path d="M23.9635 0H11.9853C9.87141 0.00239702 8.15844 1.71537 8.15634 3.82923V32.171C8.15844 34.2848 9.87141 35.9978 11.9853 35.9999H23.9635C26.0773 35.9978 27.7903 34.2848 27.7927 32.171V3.82923C27.7903 1.71537 26.0773 0.00239702 23.9635 0ZM17.9745 32.7274C17.0705 32.7274 16.338 31.9948 16.338 31.0908C16.338 30.1871 17.0705 29.4545 17.9745 29.4545C18.8782 29.4545 19.6108 30.1871 19.6108 31.0908C19.6108 31.9948 18.8782 32.7274 17.9745 32.7274ZM20.4291 4.90909H15.52C15.0681 4.90909 14.7017 4.54265 14.7017 4.09081C14.7017 3.63897 15.0681 3.27283 15.52 3.27283H20.4291C20.8809 3.27283 21.2471 3.63897 21.2471 4.09081C21.2471 4.54265 20.8809 4.90909 20.4291 4.90909Z" fill="white"/>
</g>
<defs>
<clipPath id="clip0_41_16">
<rect width="36" height="36" fill="white"/>
</clipPath>
</defs>
</svg>
