<svg width="795" height="380" viewBox="0 0 795 380" fill="none" xmlns="http://www.w3.org/2000/svg">
<g clip-path="url(#clip0_41_6740)">
<rect opacity="0.04" x="370.956" y="15.1494" width="65.54" height="65.54" fill="white"/>
<rect opacity="0.04" x="567.576" y="146.229" width="65.54" height="65.54" fill="white"/>
<rect opacity="0.04" x="436.496" y="277.31" width="65.54" height="65.54" fill="white"/>
<rect opacity="0.04" x="239.876" y="211.77" width="65.54" height="65.54" fill="white"/>
<rect opacity="0.04" x="108.796" y="80.6895" width="65.54" height="65.54" fill="white"/>
<rect opacity="0.04" x="174.336" y="342.85" width="65.54" height="65.54" fill="white"/>
<rect opacity="0.04" x="43.2564" y="277.31" width="65.54" height="65.54" fill="white"/>
<rect opacity="0.04" x="371.612" y="146.229" width="65.54" height="65.54" fill="white"/>
<rect opacity="0.04" x="43.2564" y="-50.3906" width="65.54" height="65.54" fill="white"/>
<rect opacity="0.04" x="633.116" y="15.1494" width="65.54" height="65.54" fill="white"/>
<rect opacity="0.04" x="698.656" y="342.85" width="65.54" height="65.54" fill="white"/>
<g opacity="0.13">
<line x1="43.4202" y1="-54.9785" x2="43.4202" y2="408.389" stroke="white" stroke-width="0.3277"/>
<line x1="108.96" y1="-72.6741" x2="108.96" y2="430.673" stroke="white" stroke-width="0.3277"/>
<line x1="174.5" y1="-72.6741" x2="174.5" y2="430.673" stroke="white" stroke-width="0.3277"/>
<line x1="240.04" y1="-72.6741" x2="240.04" y2="430.673" stroke="white" stroke-width="0.3277"/>
<line x1="305.58" y1="-72.6741" x2="305.58" y2="430.673" stroke="white" stroke-width="0.3277"/>
<line x1="371.12" y1="-72.6741" x2="371.12" y2="430.673" stroke="white" stroke-width="0.3277"/>
<line x1="436.66" y1="-72.6741" x2="436.66" y2="430.673" stroke="white" stroke-width="0.3277"/>
<line x1="502.2" y1="-72.6741" x2="502.2" y2="430.673" stroke="white" stroke-width="0.3277"/>
<line x1="567.74" y1="-72.6741" x2="567.74" y2="430.673" stroke="white" stroke-width="0.3277"/>
<line x1="633.28" y1="-72.6741" x2="633.28" y2="430.673" stroke="white" stroke-width="0.3277"/>
<line x1="698.82" y1="-72.6738" x2="698.82" y2="430.673" stroke="white" stroke-width="0.3277"/>
<line x1="764.36" y1="-56.2891" x2="764.36" y2="409.7" stroke="white" stroke-width="0.3277"/>
<line y1="14.9856" x2="795" y2="14.9856" stroke="white" stroke-width="0.3277"/>
<line y1="80.5256" x2="795" y2="80.5256" stroke="white" stroke-width="0.3277"/>
<line y1="146.066" x2="795" y2="146.066" stroke="white" stroke-width="0.3277"/>
<line y1="211.606" x2="795" y2="211.606" stroke="white" stroke-width="0.3277"/>
<line y1="277.146" x2="795" y2="277.146" stroke="white" stroke-width="0.3277"/>
<line y1="342.686" x2="795" y2="342.686" stroke="white" stroke-width="0.3277"/>
</g>
</g>
<defs>
<clipPath id="clip0_41_6740">
<rect width="795" height="380" fill="white"/>
</clipPath>
</defs>
</svg>
