<svg width="18" height="20" viewBox="0 0 18 20" fill="none" xmlns="http://www.w3.org/2000/svg">
<path d="M16.74 3.6034C15.3021 3.20629 13.9085 2.64235 12.5836 1.9215C12.1745 1.70136 11.7982 1.49002 11.4545 1.28749C10.7755 0.882426 10.2355 0.521388 9.88364 0.274827C9.86358 0.259632 9.84151 0.24776 9.81818 0.239605C9.55881 0.076893 9.26284 -0.00588688 8.96268 0.000325658C8.66252 0.00653819 8.36973 0.101503 8.11636 0.274827C6.00528 1.76062 3.69212 2.88359 1.26 3.6034C0.901955 3.69703 0.583346 3.91699 0.354981 4.22821C0.126617 4.53942 0.00164689 4.92397 1.11999e-06 5.32053V6.82631C-0.000862407 9.00095 0.497631 11.1421 1.45115 13.0594C2.40466 14.9767 3.78365 16.6106 5.46546 17.8159L6.22636 18.3619L8.09182 19.7003C8.2397 19.8052 8.40287 19.8826 8.57454 19.9293H8.58273C8.71688 19.979 8.85814 20.0029 9 19.9997C9.32329 19.9967 9.6388 19.8927 9.90818 19.7003L12.5345 17.8159C14.2164 16.6106 15.5953 14.9767 16.5489 13.0594C17.5024 11.1421 18.0009 9.00095 18 6.82631V5.32053C17.9984 4.92397 17.8734 4.53942 17.645 4.22821C17.4167 3.91699 17.098 3.69703 16.74 3.6034ZM12.0355 8.42015L8.76273 11.9425C8.60763 12.1062 8.39906 12.1979 8.18182 12.1979C7.96458 12.1979 7.75601 12.1062 7.60091 11.9425L5.96455 10.1813C5.81048 10.0155 5.72393 9.79059 5.72393 9.5561C5.72393 9.3216 5.81048 9.0967 5.96455 8.93089C6.11861 8.76507 6.32757 8.67192 6.54545 8.67192C6.76334 8.67192 6.9723 8.76507 7.12636 8.93089L8.18182 10.0756L10.8736 7.16974C10.9499 7.08763 11.0405 7.0225 11.1402 6.97807C11.2398 6.93364 11.3467 6.91077 11.4545 6.91077C11.5624 6.91077 11.6693 6.93364 11.7689 6.97807C11.8686 7.0225 11.9592 7.08763 12.0355 7.16974C12.1117 7.25184 12.1723 7.34931 12.2135 7.45658C12.2548 7.56386 12.2761 7.67883 12.2761 7.79494C12.2761 7.91106 12.2548 8.02603 12.2135 8.1333C12.1723 8.24058 12.1117 8.33805 12.0355 8.42015Z" fill="white"/>
</svg>
