<svg width="19" height="24" viewBox="0 0 19 24" fill="none" xmlns="http://www.w3.org/2000/svg">
<path fill-rule="evenodd" clip-rule="evenodd" d="M9.42422 0.75C14.2739 0.75 18.2053 4.68145 18.2053 9.53109C18.2053 14.3807 14.2739 18.3122 9.42422 18.3122C4.57453 18.3122 0.643127 14.3807 0.643127 9.53109C0.643127 4.68145 4.57453 0.75 9.42422 0.75ZM16.0167 16.4145C14.7971 17.5828 13.2677 18.4302 11.564 18.821L13.0646 22.305L14.6848 19.6943L17.6948 20.3107L16.0167 16.4145ZM7.74272 18.9143C6.02199 18.6081 4.46105 17.8401 3.19257 16.743L1.15369 21.1223L4.18046 20.5935L5.72419 23.25L7.74272 18.9143ZM9.57282 6.43908C9.52125 6.30323 9.32724 6.30323 9.27567 6.43908L8.51283 8.44833C8.48991 8.5087 8.43652 8.54752 8.37197 8.55066L6.22533 8.65528C6.07932 8.66236 6.01955 8.8463 6.1335 8.93789L7.80868 10.2843C7.85902 10.3248 7.87941 10.3875 7.86249 10.4499L7.29863 12.5238C7.26028 12.6649 7.41671 12.7785 7.539 12.6985L9.33718 11.5214C9.39122 11.486 9.45722 11.486 9.51122 11.5214L11.3094 12.6985C11.4317 12.7785 11.5882 12.6649 11.5498 12.5238L10.986 10.4499C10.969 10.3876 10.9894 10.3248 11.0397 10.2844L12.7149 8.93794C12.8288 8.84634 12.7691 8.66245 12.6231 8.65533L10.4765 8.5507C10.4119 8.54756 10.3586 8.50875 10.3356 8.44837L9.57282 6.43908ZM10.2541 3.3225C9.7545 2.94853 9.09394 2.94853 8.59435 3.3225C7.29371 4.29609 7.58864 4.1887 5.96649 4.27894C5.34342 4.31358 4.83736 4.73822 4.69505 5.34581C4.3245 6.92766 4.48144 6.65578 3.29682 7.76766C2.8418 8.19473 2.7271 8.84527 3.00863 9.40219C3.74157 10.8521 3.68705 10.543 3.49425 12.1562C3.42019 12.7758 3.75052 13.3479 4.32413 13.5936C5.81761 14.2332 5.57714 14.0314 6.46636 15.3911C6.80789 15.9134 7.42866 16.1393 8.02603 15.9588C9.58121 15.4888 9.26733 15.4888 10.8225 15.9588C11.4199 16.1393 12.0406 15.9134 12.3822 15.3911C13.2714 14.0314 13.031 14.2332 14.5244 13.5936C15.0981 13.3479 15.4283 12.7758 15.3543 12.1562C15.1615 10.543 15.107 10.8521 15.8399 9.40219C16.1214 8.84527 16.0067 8.19473 15.5517 7.76766C14.3671 6.65583 14.524 6.92766 14.1535 5.34581C14.0112 4.73822 13.5051 4.31362 12.882 4.27894C11.2598 4.1887 11.5547 4.29605 10.2541 3.3225Z" fill="white"/>
</svg>
