<svg width="44" height="44" viewBox="0 0 44 44" fill="none" xmlns="http://www.w3.org/2000/svg">
<path d="M42.625 18.5625V25.4375C42.625 27.3335 41.0835 28.875 39.1875 28.875H38.2516C36.937 36.6658 30.16 42.625 22 42.625C21.24 42.625 20.625 42.01 20.625 41.25C20.625 40.49 21.24 39.875 22 39.875C29.5813 39.875 35.75 33.7063 35.75 26.125V17.875C35.75 10.2937 29.5813 4.125 22 4.125C14.4187 4.125 8.25 10.2937 8.25 17.875V27.5C8.25 28.26 7.63501 28.875 6.875 28.875H4.8125C2.9165 28.875 1.375 27.3335 1.375 25.4375V18.5625C1.375 16.6665 2.9165 15.125 4.8125 15.125H5.74841C7.06299 7.33423 13.84 1.375 22 1.375C30.16 1.375 36.937 7.33423 38.2516 15.125H39.1875C41.0835 15.125 42.625 16.6665 42.625 18.5625ZM22 6.875C15.9347 6.875 11 11.8097 11 17.875V24.75C11 30.8153 15.9347 35.75 22 35.75C28.0653 35.75 33 30.8153 33 24.75V17.875C33 11.8097 28.0653 6.875 22 6.875Z" fill="#3CB55A"/>
</svg>
