<svg width="36" height="36" viewBox="0 0 36 36" fill="none" xmlns="http://www.w3.org/2000/svg">
<path d="M1.80668 34.1566C2.7881 35.1377 4.47652 35.191 5.47418 34.1933L15.7305 23.9369C16.4354 24.2066 17.2004 24.3547 18 24.3547C21.5093 24.3547 24.3548 21.5092 24.3548 17.9999C24.3548 17.0211 24.1334 16.0944 23.7382 15.2668L18.881 20.124H17.1239L15.8815 18.8809V17.1245L20.7408 12.2652C19.9111 11.8679 18.9816 11.645 18 11.645C14.4907 11.645 11.6452 14.4906 11.6452 17.9999C11.6452 18.7995 11.7933 19.5645 12.063 20.2693L1.80668 30.5258C0.804023 31.5284 0.804023 33.154 1.80668 34.1566Z" fill="white"/>
<path d="M36 20.25V15.75L33.5426 15.4427C33.3724 14.4049 33.1017 13.4016 32.7403 12.4425L34.7133 10.9484L32.4633 7.05164L30.1802 8.01492C29.5221 7.21336 28.7866 6.47789 27.9851 5.81977L28.9484 3.53672L25.0516 1.28672L23.5575 3.25969C22.5984 2.89828 21.5951 2.62758 20.5573 2.45742L20.25 0H15.75L15.4427 2.45742C14.4049 2.62758 13.4016 2.89828 12.4425 3.25969L10.9484 1.28672L7.05164 3.53672L8.01492 5.81977C7.21336 6.47789 6.47789 7.21336 5.81977 8.01492L3.53672 7.05164L1.28672 10.9484L3.25969 12.4425C2.89828 13.4016 2.62758 14.4049 2.45742 15.4427L0 15.75V20.25L2.45742 20.5573C2.62758 21.5951 2.89828 22.5984 3.25969 23.5575L1.28672 25.0516L2.38887 26.9605L7.14157 22.2078C6.6337 20.9021 6.35449 19.4831 6.35449 18C6.35449 11.5786 11.5786 6.35449 18 6.35449C24.4214 6.35449 29.6455 11.5786 29.6455 18C29.6455 24.4214 24.4214 29.6455 18 29.6455C16.5169 29.6455 15.0981 29.3662 13.7924 28.8582L9.03959 33.6111L10.9484 34.7133L12.4425 32.7403C13.4016 33.1017 14.4049 33.3724 15.4427 33.5426L15.75 36H20.25L20.5573 33.5426C21.5951 33.3724 22.5984 33.1017 23.5575 32.7403L25.0516 34.7133L28.9484 32.4633L27.9851 30.1802C28.7866 29.5221 29.5221 28.7866 30.1802 27.9851L32.4633 28.9484L34.7133 25.0516L32.7403 23.5575C33.1017 22.5984 33.3724 21.5951 33.5426 20.5573L36 20.25Z" fill="white"/>
</svg>
