<svg width="26" height="28" viewBox="0 0 26 28" fill="none" xmlns="http://www.w3.org/2000/svg">
<path d="M12.7026 28C20.3422 25.1421 25.4052 17.8424 25.4052 9.68587V4.74228C22.7861 4.74228 20.6629 2.61909 20.6629 0H12.7026H4.74228C4.74228 2.61909 2.61909 4.74228 0 4.74228V9.68581C0 17.8424 5.06302 25.1421 12.7026 28Z" fill="black"/>
<path d="M12.7026 28C20.3422 25.1421 25.4052 17.8424 25.4052 9.68587V4.74228C22.7861 4.74228 20.6629 2.61909 20.6629 0H12.7026C12.7026 0 12.7026 21.7656 12.7026 28Z" fill="black"/>
<path d="M10.933 18.9373L6.72198 14.7263L9.04216 12.4061L10.933 14.297L16.3631 8.86694L18.6832 11.1871L10.933 18.9373Z" fill="#3CB55A"/>
<path d="M12.7026 17.1677V12.5274L16.3631 8.86694L18.6833 11.1871L12.7026 17.1677Z" fill="#3CB55A"/>
</svg>
