<svg width="44" height="44" viewBox="0 0 44 44" fill="none" xmlns="http://www.w3.org/2000/svg">
<path d="M17.875 33V16.5C17.875 14.9875 16.6375 13.75 15.125 13.75H4.125C2.6125 13.75 1.375 14.9875 1.375 16.5V33C1.375 34.5125 2.6125 35.75 4.125 35.75H15.125C16.6375 35.75 17.875 34.5125 17.875 33ZM7.16375 30.9375H6.55875C5.8025 30.9375 5.18375 30.3188 5.18375 29.5625C5.18375 28.8062 5.8025 28.1875 6.55875 28.1875H7.16375C7.92 28.1875 8.53875 28.8062 8.53875 29.5625C8.53875 30.3188 7.92 30.9375 7.16375 30.9375ZM7.16375 26.8125H6.55875C5.8025 26.8125 5.18375 26.1938 5.18375 25.4375C5.18375 24.6812 5.8025 24.0625 6.55875 24.0625H7.16375C7.92 24.0625 8.53875 24.6812 8.53875 25.4375C8.53875 26.1938 7.92 26.8125 7.16375 26.8125ZM12.0588 30.9375H11.4537C10.6975 30.9375 10.0787 30.3188 10.0787 29.5625C10.0787 28.8062 10.6975 28.1875 11.4537 28.1875H12.0588C12.815 28.1875 13.4338 28.8062 13.4338 29.5625C13.4338 30.3188 12.815 30.9375 12.0588 30.9375ZM12.0588 26.8125H11.4537C10.6975 26.8125 10.0787 26.1938 10.0787 25.4375C10.0787 24.6812 10.6975 24.0625 11.4537 24.0625H12.0588C12.815 24.0625 13.4338 24.6812 13.4338 25.4375C13.4338 26.1938 12.815 26.8125 12.0588 26.8125ZM12.0588 21.3125H6.55875C5.8025 21.3125 5.18375 20.6937 5.18375 19.9375C5.18375 19.1813 5.8025 18.5625 6.55875 18.5625H12.0588C12.815 18.5625 13.4338 19.1813 13.4338 19.9375C13.4338 20.6937 12.815 21.3125 12.0588 21.3125Z" fill="#3CB55A"/>
<path d="M33.6875 11H41.8137L33 2.18625V10.3125C33 10.6975 33.3025 11 33.6875 11Z" fill="#3CB55A"/>
<path d="M33.6875 13.75C31.79 13.75 30.25 12.21 30.25 10.3125V1.375H13.0625C11.165 1.375 9.625 2.915 9.625 4.8125V11H15.4412C18.48 11 20.9412 13.4613 20.9412 16.5V33C20.9412 36.0387 18.48 38.5 15.4412 38.5H9.625V39.1875C9.625 41.085 11.165 42.625 13.0625 42.625H39.1875C41.085 42.625 42.625 41.085 42.625 39.1875V13.75H33.6875ZM16.5 6.875C15.7438 6.875 15.125 6.25625 15.125 5.5C15.125 4.74375 15.7438 4.125 16.5 4.125H26.125C26.8813 4.125 27.5 4.74375 27.5 5.5C27.5 6.25625 26.8813 6.875 26.125 6.875H16.5ZM20.625 11C20.625 10.2437 21.2437 9.625 22 9.625H26.125C26.8813 9.625 27.5 10.2437 27.5 11C27.5 11.7563 26.8813 12.375 26.125 12.375H22C21.2437 12.375 20.625 11.7563 20.625 11ZM37.125 37.125H23.375C22.6187 37.125 22 36.5062 22 35.75C22 34.9938 22.6187 34.375 23.375 34.375H24.0625V28.875C24.0625 28.1187 24.6812 27.5 25.4375 27.5C26.1938 27.5 26.8125 28.1187 26.8125 28.875V34.375H28.875V23.375C28.875 22.6187 29.4937 22 30.25 22C31.0063 22 31.625 22.6187 31.625 23.375V34.375H33.6875V17.875C33.6875 17.1187 34.3062 16.5 35.0625 16.5C35.8188 16.5 36.4375 17.1187 36.4375 17.875V34.375H37.125C37.8813 34.375 38.5 34.9938 38.5 35.75C38.5 36.5062 37.8813 37.125 37.125 37.125Z" fill="#3CB55A"/>
</svg>
