<svg width="36" height="36" viewBox="0 0 36 36" fill="none" xmlns="http://www.w3.org/2000/svg">
<path d="M4.75197 28.8H12.672L11.952 31.68H8.78397C7.91997 31.68 7.34397 32.256 7.34397 33.12C7.34397 33.84 7.91997 34.56 8.78397 34.56H27.216C28.08 34.56 28.656 33.84 28.656 33.12C28.656 32.256 28.08 31.68 27.216 31.68H24.192L23.472 28.8H31.392C33.552 28.8 35.424 26.928 35.424 24.768C35.424 17.856 35.424 12.672 35.424 5.61603C35.424 3.45603 33.552 1.58403 31.392 1.58403H4.75197C2.59197 1.44003 0.719971 3.31203 0.719971 5.47203V24.624C0.719971 26.928 2.44797 28.8 4.75197 28.8ZM3.59997 5.47203C3.59997 4.89603 4.17597 4.32003 4.75197 4.32003H31.248C31.824 4.32003 32.4 4.89603 32.4 5.47203V20.16H3.59997V5.47203Z" fill="white"/>
<path d="M26.6399 14.976C25.9199 14.976 25.4879 14.544 25.1999 14.112C24.9119 13.536 25.0559 12.96 25.4879 12.528L25.6319 12.384C26.2079 11.808 26.2079 10.944 25.6319 10.368L24.6239 9.36003C24.0479 8.78403 23.1839 8.78403 22.6079 9.36003L22.4639 9.50403C22.1759 10.08 21.5999 10.08 21.0239 9.93603C21.0239 9.93603 21.0239 9.93603 20.8799 9.93603C20.3039 9.79203 20.0159 9.21603 20.0159 8.64003V8.49603C20.0159 7.77603 19.4399 7.05603 18.5759 7.05603H17.2799C16.5599 7.05603 15.8399 7.63203 15.8399 8.49603V8.64003C15.8399 9.21603 15.5519 9.79203 14.9759 9.93603C14.9759 9.93603 14.9759 9.93603 14.8319 9.93603C14.3999 10.08 13.8239 10.08 13.3919 9.64803V9.50403C12.8159 8.92803 11.9519 8.92803 11.3759 9.50403L10.3679 10.512C9.79192 11.088 9.79192 11.952 10.3679 12.528L10.5119 12.672C10.9439 12.96 11.0879 13.536 10.7999 14.112C10.5119 14.688 10.0799 14.976 9.50392 14.976H9.35992C8.63992 14.976 7.91992 15.552 7.91992 16.416V17.28H13.6799V17.136C13.6799 14.688 15.5519 12.816 17.9999 12.816C20.4479 12.816 22.3199 14.688 22.3199 17.136V17.28H28.0799V16.416C28.0799 15.696 27.3599 14.976 26.6399 14.976Z" fill="white"/>
</svg>
