<svg width="32" height="32" viewBox="0 0 32 32" fill="none" xmlns="http://www.w3.org/2000/svg">
<g clip-path="url(#clip0_41_6308)">
<path d="M31.9494 0.6865C31.8378 0.293313 31.4916 0 31.0625 0H27.3125C26.7943 0 26.375 0.419312 26.375 0.9375C26.375 1.45569 26.7943 1.875 27.3125 1.875H29.505L25.028 6.92987C18.9919 13.7579 10.1091 17.3669 1.01796 16.5768C0.519021 16.5246 0.0483958 16.9138 0.00358333 17.4301C-0.0412917 17.9455 0.340521 18.3996 0.856833 18.4444C1.7339 18.5204 2.47396 18.5579 3.34833 18.5579C12.109 18.5579 20.5868 14.7832 26.4325 8.17125L30.125 4.00375V4.6875C30.125 5.20569 30.5443 5.625 31.0625 5.625C31.5806 5.625 32 5.20569 32 4.6875V1.86263L31.9494 0.6865Z" fill="#3CB55A"/>
<path d="M31.0625 30.125H30.0625V9.04753C30.0625 8.65384 29.8162 8.30228 29.4464 8.16678C29.0774 8.03403 28.6627 8.14203 28.4082 8.44328L27.8323 9.12715C26.8802 10.2569 25.8429 11.3308 24.7479 12.3168C24.5501 12.4945 24.4375 12.748 24.4375 13.0135V30.125H22.5625V15.9387C22.5625 15.5927 22.3711 15.274 22.0663 15.1111C21.7614 14.95 21.3888 14.9665 21.1022 15.1605C19.9386 15.9424 18.7118 16.6565 17.4557 17.2845C17.138 17.4429 16.9375 17.7679 16.9375 18.1232V30.125H15.0625V19.7217C15.0625 19.4168 14.9142 19.1312 14.6652 18.9553C14.4171 18.7805 14.0966 18.7383 13.8101 18.8391C12.6208 19.263 11.394 19.6228 10.1635 19.9066C9.73869 20.0055 9.4375 20.3836 9.4375 20.8203V30.125H7.5625V21.4667C7.5625 21.1993 7.44806 20.9448 7.24937 20.7672C7.04887 20.5896 6.77694 20.499 6.51881 20.5356C5.31581 20.6729 4.08994 20.7434 2.87413 20.7452C2.35687 20.7462 1.93756 21.1655 1.93756 21.6827V30.125H0.9375C0.419312 30.125 0 30.5443 0 31.0625C0 31.5807 0.419312 32 0.9375 32H31.0625C31.5807 32 32 31.5807 32 31.0625C32 30.5443 31.5807 30.125 31.0625 30.125Z" fill="black"/>
</g>
<defs>
<clipPath id="clip0_41_6308">
<rect width="32" height="32" fill="white"/>
</clipPath>
</defs>
</svg>
