<svg width="16" height="24" viewBox="0 0 16 24" fill="none" xmlns="http://www.w3.org/2000/svg">
<path d="M15.8127 9.25343C15.7691 9.17647 15.7058 9.11247 15.6294 9.06793C15.553 9.0234 15.4661 8.99993 15.3777 8.99993H8.82766L9.92579 0.609553C9.93757 0.497261 9.91122 0.384271 9.85098 0.288775C9.79074 0.19328 9.70012 0.120835 9.5937 0.0831058C9.48728 0.0453766 9.37126 0.0445584 9.26432 0.0807829C9.15738 0.117007 9.06574 0.188167 9.00416 0.282803L1.03866 14.2381C0.992084 14.3138 0.966554 14.4006 0.964707 14.4895C0.962861 14.5785 0.984763 14.6663 1.02816 14.7439C1.07155 14.8215 1.13487 14.8862 1.21157 14.9312C1.28828 14.9762 1.3756 14.9999 1.46454 14.9999H7.91666L7.04641 23.4029C7.03786 23.5148 7.06698 23.6264 7.12914 23.7198C7.1913 23.8133 7.28292 23.8833 7.38943 23.9186C7.49594 23.954 7.61122 23.9527 7.71693 23.915C7.82264 23.8773 7.9127 23.8053 7.97279 23.7106L15.8067 9.7568C15.8521 9.68093 15.8766 9.59436 15.8776 9.50593C15.8787 9.4175 15.8563 9.33037 15.8127 9.25343Z" fill="white"/>
</svg>
