<svg width="24" height="24" viewBox="0 0 24 24" fill="none" xmlns="http://www.w3.org/2000/svg">
<path d="M21.8906 0H2.10938C0.946219 0 0 0.946219 0 2.10938V4.92188C0 6.08503 0.946219 7.03125 2.10938 7.03125H21.8906C23.0538 7.03125 24 6.08503 24 4.92188V2.10938C24 0.946219 23.0538 0 21.8906 0ZM3.51562 4.21875C3.12731 4.21875 2.8125 3.90394 2.8125 3.51562C2.8125 3.12722 3.12731 2.8125 3.51562 2.8125C3.90394 2.8125 4.21875 3.12722 4.21875 3.51562C4.21875 3.90394 3.90394 4.21875 3.51562 4.21875ZM6.32812 4.21875C5.93981 4.21875 5.625 3.90394 5.625 3.51562C5.625 3.12722 5.93981 2.8125 6.32812 2.8125C6.71644 2.8125 7.03125 3.12722 7.03125 3.51562C7.03125 3.90394 6.71644 4.21875 6.32812 4.21875ZM9.14062 4.21875C8.75231 4.21875 8.4375 3.90394 8.4375 3.51562C8.4375 3.12722 8.75231 2.8125 9.14062 2.8125C9.52894 2.8125 9.84375 3.12722 9.84375 3.51562C9.84375 3.90394 9.52894 4.21875 9.14062 4.21875ZM20.4844 4.21875H14.8594C14.4707 4.21875 14.1562 3.90427 14.1562 3.51562C14.1562 3.12698 14.4707 2.8125 14.8594 2.8125H20.4844C20.873 2.8125 21.1875 3.12698 21.1875 3.51562C21.1875 3.90427 20.873 4.21875 20.4844 4.21875Z" fill="white"/>
<path d="M21.8906 8.48438H2.10938C0.946219 8.48438 0 9.43059 0 10.5938V13.4062C0 14.5694 0.946219 15.5156 2.10938 15.5156H21.8906C23.0538 15.5156 24 14.5694 24 13.4062V10.5938C24 9.43059 23.0538 8.48438 21.8906 8.48438ZM3.51562 12.7031C3.12731 12.7031 2.8125 12.3883 2.8125 12C2.8125 11.6116 3.12731 11.2969 3.51562 11.2969C3.90394 11.2969 4.21875 11.6116 4.21875 12C4.21875 12.3883 3.90394 12.7031 3.51562 12.7031ZM6.32812 12.7031C5.93981 12.7031 5.625 12.3883 5.625 12C5.625 11.6116 5.93981 11.2969 6.32812 11.2969C6.71644 11.2969 7.03125 11.6116 7.03125 12C7.03125 12.3883 6.71644 12.7031 6.32812 12.7031ZM9.14062 12.7031C8.75231 12.7031 8.4375 12.3883 8.4375 12C8.4375 11.6116 8.75231 11.2969 9.14062 11.2969C9.52894 11.2969 9.84375 11.6116 9.84375 12C9.84375 12.3883 9.52894 12.7031 9.14062 12.7031ZM20.4844 12.7031H14.8594C14.4707 12.7031 14.1562 12.3886 14.1562 12C14.1562 11.6114 14.4707 11.2969 14.8594 11.2969H20.4844C20.873 11.2969 21.1875 11.6114 21.1875 12C21.1875 12.3886 20.873 12.7031 20.4844 12.7031Z" fill="white"/>
<path d="M21.8906 16.9688H2.10938C0.946219 16.9688 0 17.915 0 19.0781V21.8906C0 23.0538 0.946219 24 2.10938 24H21.8906C23.0538 24 24 23.0538 24 21.8906V19.0781C24 17.915 23.0538 16.9688 21.8906 16.9688ZM3.51562 21.1875C3.12731 21.1875 2.8125 20.8727 2.8125 20.4844C2.8125 20.096 3.12731 19.7812 3.51562 19.7812C3.90394 19.7812 4.21875 20.096 4.21875 20.4844C4.21875 20.8727 3.90394 21.1875 3.51562 21.1875ZM6.32812 21.1875C5.93981 21.1875 5.625 20.8727 5.625 20.4844C5.625 20.096 5.93981 19.7812 6.32812 19.7812C6.71644 19.7812 7.03125 20.096 7.03125 20.4844C7.03125 20.8727 6.71644 21.1875 6.32812 21.1875ZM9.14062 21.1875C8.75231 21.1875 8.4375 20.8727 8.4375 20.4844C8.4375 20.096 8.75231 19.7812 9.14062 19.7812C9.52894 19.7812 9.84375 20.096 9.84375 20.4844C9.84375 20.8727 9.52894 21.1875 9.14062 21.1875ZM20.4844 21.1875H14.8594C14.4707 21.1875 14.1562 20.873 14.1562 20.4844C14.1562 20.0957 14.4707 19.7812 14.8594 19.7812H20.4844C20.873 19.7812 21.1875 20.0957 21.1875 20.4844C21.1875 20.873 20.873 21.1875 20.4844 21.1875Z" fill="white"/>
</svg>
