<svg width="28" height="28" viewBox="0 0 28 28" fill="none" xmlns="http://www.w3.org/2000/svg">
<path d="M22.62 10.7958C22.5692 10.706 22.4954 10.6313 22.4062 10.5794C22.3171 10.5274 22.2157 10.5 22.1125 10.5H14.4709L15.752 0.711268C15.7658 0.58026 15.735 0.448438 15.6647 0.337027C15.5945 0.225615 15.4887 0.141096 15.3646 0.0970788C15.2404 0.0530615 15.1051 0.0521069 14.9803 0.0943688C14.8555 0.136631 14.7486 0.21965 14.6768 0.330059L5.38371 16.6112C5.32937 16.6996 5.29958 16.8009 5.29743 16.9046C5.29527 17.0083 5.32083 17.1108 5.37145 17.2013C5.42208 17.2919 5.49595 17.3673 5.58544 17.4198C5.67493 17.4723 5.77681 17.5 5.88056 17.5H13.408L12.3928 27.3035C12.3828 27.4341 12.4167 27.5642 12.4893 27.6733C12.5618 27.7823 12.6687 27.8639 12.7929 27.9052C12.9172 27.9464 13.0517 27.945 13.175 27.901C13.2983 27.857 13.4034 27.773 13.4735 27.6624L22.613 11.3831C22.666 11.2945 22.6946 11.1935 22.6958 11.0904C22.6971 10.9872 22.6709 10.8856 22.62 10.7958Z" fill="white"/>
</svg>
