<svg width="37" height="36" viewBox="0 0 37 36" fill="none" xmlns="http://www.w3.org/2000/svg">
<path d="M36.2875 19.1522V23.0402C36.2875 24.7588 35.6048 26.4069 34.3896 27.6222C33.1744 28.8374 31.5262 29.5201 29.8076 29.5201H28.5116C27.4805 29.5201 26.4916 29.1105 25.7624 28.3813C25.0333 27.6522 24.6237 26.6633 24.6237 25.6321V16.5603C24.6237 15.5291 25.0333 14.5402 25.7624 13.8111C26.4916 13.0819 27.4805 12.6723 28.5116 12.6723H29.7298C29.4001 9.83077 28.0376 7.20949 25.9014 5.30689C23.7652 3.40429 21.0044 2.35305 18.1438 2.35305C15.2831 2.35305 12.5223 3.40429 10.3861 5.30689C8.24994 7.20949 6.88744 9.83077 6.55768 12.6723H7.7759C8.80705 12.6723 9.79597 13.0819 10.5251 13.8111C11.2542 14.5402 11.6638 15.5291 11.6638 16.5603V25.6321C11.6616 26.4343 11.4113 27.2161 10.9473 27.8704C10.4832 28.5247 9.82815 29.0194 9.07189 29.2868V30.8161C9.07189 31.1598 9.20843 31.4894 9.45147 31.7325C9.69451 31.9755 10.0242 32.112 10.3679 32.112H15.9147C16.2 31.6179 16.6403 31.2317 17.1675 31.0134C17.6946 30.795 18.2791 30.7567 18.8302 30.9044C19.3814 31.0521 19.8684 31.3775 20.2157 31.8301C20.5631 32.2828 20.7513 32.8375 20.7513 33.408C20.7513 33.9786 20.5631 34.5332 20.2157 34.9859C19.8684 35.4386 19.3814 35.764 18.8302 35.9117C18.2791 36.0594 17.6946 36.021 17.1675 35.8027C16.6403 35.5843 16.2 35.1982 15.9147 34.704H10.3679C9.33672 34.704 8.34781 34.2944 7.61867 33.5653C6.88954 32.8361 6.47992 31.8472 6.47992 30.8161V29.5201C4.76134 29.5201 3.11315 28.8374 1.89793 27.6222C0.68271 26.4069 7.14195e-06 24.7588 7.14195e-06 23.0402V19.1522C-0.00186686 17.8897 0.365092 16.6542 1.0558 15.5974C1.7465 14.5407 2.73087 13.7087 3.88795 13.2037C4.15356 9.61474 5.76669 6.25905 8.40362 3.81006C11.0406 1.36107 14.5061 0 18.1049 0C21.7036 0 25.1692 1.36107 27.8061 3.81006C30.4431 6.25905 32.0562 9.61474 32.3218 13.2037C33.4934 13.6969 34.4941 14.5238 35.1993 15.5815C35.9044 16.6393 36.2829 17.881 36.2875 19.1522Z" fill="white"/>
</svg>
