<svg width="36" height="36" viewBox="0 0 36 36" fill="none" xmlns="http://www.w3.org/2000/svg">
<path d="M17.9999 27C22.9625 27 26.9999 22.9626 26.9999 18C26.9999 13.0374 22.9625 9 17.9999 9C16.1483 9 14.3699 9.558 12.8567 10.6134C12.5849 10.803 12.5189 11.1768 12.7079 11.4492C12.8975 11.7204 13.2707 11.787 13.5437 11.598C14.8547 10.6836 16.3955 10.2 18.0005 10.2C22.3013 10.2 25.8005 13.6992 25.8005 18C25.8005 22.3008 22.3013 25.8 18.0005 25.8C13.6997 25.8 10.2005 22.3008 10.2005 18C10.2005 16.1676 10.8485 14.3874 12.0251 12.9864C12.2381 12.7326 12.2057 12.354 11.9519 12.141C11.6975 11.928 11.3189 11.9616 11.1065 12.2142C9.74809 13.8312 9.00049 15.8862 9.00049 18.0006C9.00049 22.9632 13.0379 27.0006 18.0005 27.0006L17.9999 27Z" fill="white"/>
<path d="M9.5742 2.1024C9.6618 1.5768 9.516 1.0428 9.1734 0.639C8.8302 0.2328 8.3292 0 7.8 0H1.8C0.8076 0 0 0.8076 0 1.8V7.8C0 8.3292 0.2328 8.8302 0.6384 9.1734C1.0428 9.5154 1.5744 9.663 2.1018 9.5742C2.9556 9.4314 3.5994 8.6364 3.5994 7.7256V6.1404L8.3328 10.8738C8.6832 11.2242 9.1434 11.3988 9.603 11.3988C10.0626 11.3988 10.5234 11.2242 10.8732 10.8738C11.5734 10.1736 11.5734 9.0342 10.8732 8.3334L6.1398 3.6H7.725C8.6358 3.6 9.4314 2.9562 9.5742 2.1024ZM4.2678 3.4242L10.0248 9.1818C10.2576 9.4146 10.2582 9.7932 10.0248 10.0254C9.7914 10.2576 9.4128 10.2582 9.1812 10.0254L3.4242 4.2678C3.2526 4.0968 2.9946 4.0446 2.7702 4.1376C2.5458 4.23 2.4 4.4496 2.4 4.692V7.7256C2.4 8.052 2.1822 8.3442 1.9044 8.3904C1.6608 8.4318 1.4934 8.3244 1.4142 8.2572C1.278 8.142 1.2006 7.9752 1.2006 7.7994V1.8C1.2006 1.4688 1.4694 1.2 1.8006 1.2H7.8006C7.9764 1.2 8.1426 1.278 8.2584 1.4136C8.325 1.4934 8.4318 1.662 8.3916 1.9038C8.3454 2.1816 8.0532 2.3994 7.7268 2.3994H4.6932C4.4508 2.3994 4.2312 2.5452 4.1388 2.7696C4.0458 2.994 4.0974 3.252 4.269 3.4236L4.2678 3.4242Z" fill="white"/>
<path d="M10.8742 27.6666C11.5738 26.9658 11.5738 25.8264 10.8742 25.1262C10.174 24.4248 9.03398 24.4272 8.33378 25.1262L3.60038 29.8596V28.2744C3.60038 27.3636 2.95658 26.5686 2.10278 26.4258C1.57598 26.3376 1.04378 26.4846 0.639377 26.8266C0.233177 27.1698 0.000976562 27.6708 0.000976562 28.2V34.2C0.000976562 35.1924 0.808576 36 1.80098 36H7.80098C8.33018 36 8.83118 35.7672 9.17438 35.3616C9.51698 34.9572 9.66278 34.4238 9.57518 33.8982C9.43238 33.0444 8.63738 32.4006 7.72658 32.4006H6.14138L10.8748 27.6672L10.8742 27.6666ZM10.0246 26.8182L4.26758 32.5758C4.09598 32.7474 4.04438 33.0054 4.13738 33.2298C4.22978 33.4542 4.44938 33.6 4.69178 33.6H7.72538C8.05178 33.6 8.34398 33.8178 8.39018 34.0956C8.43038 34.3374 8.32418 34.5066 8.25698 34.5858C8.14178 34.722 7.97498 34.7994 7.79918 34.7994H1.79978C1.46858 34.7994 1.19978 34.5306 1.19978 34.1994V28.1994C1.19978 28.0236 1.27778 27.8574 1.41338 27.7416C1.48058 27.6846 1.61258 27.6 1.79858 27.6C1.83218 27.6 1.86698 27.6024 1.90418 27.609C2.18198 27.6552 2.39978 27.9474 2.39978 28.2738V31.3074C2.39978 31.5498 2.54558 31.7694 2.76998 31.8618C2.99438 31.9548 3.25178 31.9032 3.42398 31.7316L9.18158 25.9746C9.41378 25.7412 9.79358 25.7418 10.0252 25.9746C10.2568 26.2074 10.2568 26.586 10.0246 26.8182Z" fill="white"/>
<path d="M33.8976 26.426C33.0438 26.5688 32.4 27.3639 32.4 28.2747V29.8598L27.6666 25.1264C26.9658 24.4256 25.8258 24.4262 25.1262 25.1264C24.426 25.8266 24.426 26.9661 25.1262 27.6669L29.8596 32.4002H28.2744C27.3636 32.4002 26.5686 33.044 26.4258 33.8978C26.3382 34.4234 26.484 34.9575 26.8266 35.3613C27.1698 35.7675 27.6708 35.9997 28.2 35.9997H34.2C35.1924 35.9997 36 35.192 36 34.1997V28.1997C36 27.6705 35.7672 27.1694 35.3616 26.8262C34.9566 26.4842 34.4238 26.336 33.8982 26.4254L33.8976 26.426ZM34.8 34.2002C34.8 34.5315 34.5312 34.8003 34.2 34.8003H28.2C28.0242 34.8003 27.858 34.7223 27.7422 34.5867C27.6756 34.5069 27.5688 34.3383 27.609 34.0964C27.6552 33.8187 27.9474 33.6009 28.2738 33.6009H31.3074C31.5498 33.6009 31.7694 33.455 31.8618 33.2306C31.9548 33.0062 31.9032 32.7482 31.7316 32.5766L25.9746 26.8191C25.7418 26.5863 25.7412 26.2076 25.9746 25.9754C26.208 25.7432 26.5866 25.7426 26.8182 25.9754L32.5758 31.7325C32.748 31.9041 33.006 31.9563 33.2298 31.8626C33.4542 31.7702 33.6 31.5507 33.6 31.3082V28.2747C33.6 27.9483 33.8178 27.656 34.0956 27.6098C34.3374 27.5672 34.5066 27.6758 34.5858 27.743C34.722 27.8582 34.7994 28.025 34.7994 28.2008V34.2008L34.8 34.2002Z" fill="white"/>
<path d="M34.2001 0H28.2001C27.6709 0 27.1699 0.2328 26.8267 0.6384C26.4841 1.0428 26.3383 1.5762 26.4259 2.1018C26.5687 2.9556 27.3637 3.5994 28.2745 3.5994H29.8597L25.1263 8.3328C24.4267 9.0336 24.4267 10.173 25.1263 10.8732C25.4761 11.2236 25.9363 11.3982 26.3959 11.3982C26.8555 11.3982 27.3163 11.223 27.6667 10.8732L32.4001 6.1398V7.725C32.4001 8.6358 33.0439 9.4308 33.8977 9.5736C34.4245 9.663 34.9573 9.5148 35.3611 9.1728C35.7673 8.8296 35.9995 8.3286 35.9995 7.7994V1.8C36.0001 0.8076 35.1925 0 34.2001 0ZM34.8001 7.8C34.8001 7.9758 34.7221 8.142 34.5865 8.2578C34.5067 8.3244 34.3381 8.4324 34.0963 8.391C33.8185 8.3448 33.6007 8.0526 33.6007 7.7262V4.6926C33.6007 4.4502 33.4549 4.2306 33.2305 4.1382C33.0061 4.0452 32.7481 4.0968 32.5765 4.2684L26.8189 10.0254C26.5867 10.2588 26.2069 10.2582 25.9753 10.0254C25.7437 9.7926 25.7431 9.414 25.9753 9.1818L31.7323 3.4242C31.9039 3.2526 31.9555 2.9946 31.8625 2.7702C31.7701 2.5458 31.5505 2.4 31.3081 2.4H28.2745C27.9481 2.4 27.6559 2.1822 27.6097 1.9044C27.5695 1.6626 27.6757 1.4934 27.7429 1.4142C27.8581 1.278 28.0249 1.2006 28.2007 1.2006H34.2007C34.5319 1.2006 34.8007 1.4694 34.8007 1.8006V7.8006L34.8001 7.8Z" fill="white"/>
<path d="M17.9999 12C17.6681 12 17.3999 12.2682 17.3999 12.6V13.239C15.6773 13.4478 14.3999 14.5398 14.3999 15.9C14.3999 17.2602 15.6773 18.3522 17.3999 18.561V21.5472C16.3865 21.3828 15.6995 20.826 15.5873 20.2794C15.5213 19.9548 15.2033 19.7454 14.8793 19.812C14.5547 19.878 14.3447 20.1954 14.4119 20.52C14.6513 21.6918 15.8663 22.5744 17.3993 22.7604V23.4C17.3993 23.7318 17.6675 24 17.9993 24C18.3311 24 18.5993 23.7318 18.5993 23.4V22.761C20.3219 22.5522 21.5993 21.4602 21.5993 20.1C21.5993 18.7398 20.3219 17.6478 18.5993 17.439V14.4528C19.6127 14.6172 20.2997 15.174 20.4119 15.7206C20.4779 16.0452 20.7959 16.2546 21.1199 16.188C21.4445 16.122 21.6545 15.8046 21.5873 15.48C21.3479 14.3082 20.1329 13.4256 18.5999 13.2396V12.6C18.5999 12.2682 18.3317 12 17.9999 12ZM15.5999 15.9C15.5999 15.2166 16.3799 14.628 17.3999 14.4558V17.3448C16.3799 17.1726 15.5999 16.5834 15.5999 15.9ZM20.3999 20.1C20.3999 20.7834 19.6199 21.372 18.5999 21.5442V18.6552C19.6199 18.8274 20.3999 19.4166 20.3999 20.1Z" fill="white"/>
</svg>
