<svg width="22" height="24" viewBox="0 0 22 24" fill="none" xmlns="http://www.w3.org/2000/svg">
<path d="M20.3419 3.96304L11.8327 0.122735L11.7009 0.0710713C11.3201 -0.0236904 10.9213 -0.0236904 10.5405 0.0710713L10.4087 0.122735L1.8995 3.96304C1.49758 4.14431 1.16088 4.44019 0.933462 4.81198C0.706041 5.18377 0.598491 5.61415 0.624886 6.0468L0.923762 10.9376C1.09337 13.7506 2.07592 16.4584 3.75684 18.7452C5.43776 21.0321 7.74776 22.8037 10.4175 23.8534C10.6412 23.9521 10.8841 24.002 11.1295 23.9998C11.3627 24.0033 11.5939 23.9563 11.8064 23.862C14.4794 22.8149 16.793 21.0444 18.4772 18.7574C20.1614 16.4703 21.1466 13.7612 21.3177 10.9462L21.6165 6.05541C21.6447 5.62134 21.5381 5.18908 21.3105 4.81558C21.083 4.44207 20.7453 4.14484 20.3419 3.96304ZM15.7357 9.99044L11.0416 15.1568C10.9652 15.2424 10.8723 15.3123 10.7682 15.3626C10.6641 15.4128 10.5509 15.4424 10.4351 15.4495H10.3911C10.1702 15.4511 9.9568 15.3712 9.79335 15.2257L6.56724 12.3153C6.39589 12.16 6.29453 11.9444 6.28546 11.7159C6.27639 11.4874 6.36036 11.2647 6.5189 11.0969C6.67743 10.929 6.89754 10.8298 7.13081 10.8209C7.36408 10.812 7.59139 10.8942 7.76275 11.0495L10.3296 13.3658L14.4171 8.85384C14.574 8.69383 14.7879 8.59932 15.0142 8.59002C15.2406 8.58071 15.4618 8.65734 15.6318 8.80391C15.8019 8.95048 15.9076 9.15569 15.9269 9.37675C15.9463 9.5978 15.8778 9.81765 15.7357 9.99044Z" fill="white"/>
</svg>
