<svg width="36" height="36" viewBox="0 0 36 36" fill="none" xmlns="http://www.w3.org/2000/svg">
<g clip-path="url(#clip0_41_13)">
<path d="M22.673 13.7903C16.5501 13.7903 11.5682 18.7723 11.5682 24.8952C11.5682 31.0181 16.5501 36 22.673 36C28.7959 36 33.7779 31.0181 33.7779 24.8952C33.7779 18.7723 28.7959 13.7903 22.673 13.7903ZM20.2866 20.4888C21.1372 20.4888 21.8297 21.1805 21.8297 22.0311C21.8297 22.8824 21.1372 23.5749 20.2866 23.5749C19.4359 23.5749 18.7435 22.8825 18.7435 22.0311C18.7435 21.1805 19.4359 20.4888 20.2866 20.4888ZM25.0595 29.3015C24.2089 29.3015 23.5164 28.6098 23.5164 27.7592C23.5164 26.9079 24.2089 26.2154 25.0595 26.2154C25.9101 26.2154 26.6026 26.9078 26.6026 27.7592C26.6026 28.6098 25.9101 29.3015 25.0595 29.3015ZM26.358 22.8527L20.6306 28.58C20.1743 29.0349 19.4425 29.0329 18.9881 28.58C18.5345 28.1264 18.5345 27.3911 18.9881 26.9375L24.7155 21.2102C25.1691 20.7566 25.9043 20.7566 26.358 21.2102C26.8116 21.6639 26.8116 22.3991 26.358 22.8527ZM19.5521 0H12.0037C11.1215 0 10.5617 0.946887 10.9854 1.71944L13.2035 5.76726C11.624 6.70703 11.1168 8.71781 11.9993 10.2774C8.08579 11.61 5.04176 14.9581 4.22813 19.1976L2.32797 29.099C1.64092 32.6823 4.38751 36 8.03063 36H12.8673C13.7413 36 14.1691 34.9375 13.5411 34.3296C6.0981 27.1239 9.56781 14.6192 19.4999 12.1466C20.4238 11.9166 20.5232 10.6044 19.5564 10.2773C20.4389 8.71795 19.932 6.70703 18.3523 5.76719L20.5704 1.71936C20.9947 0.945726 20.4329 0 19.5521 0ZM16.6489 9.65323H14.9069C14.2399 9.65323 13.721 9.00653 13.943 8.30758C14.0744 7.89315 14.4722 7.62097 14.9069 7.62097H16.6489C17.0836 7.62097 17.4814 7.89315 17.6127 8.30758C17.8348 9.00653 17.3159 9.65323 16.6489 9.65323Z" fill="white"/>
</g>
<defs>
<clipPath id="clip0_41_13">
<rect width="36" height="36" fill="white"/>
</clipPath>
</defs>
</svg>
