<svg width="36" height="36" viewBox="0 0 36 36" fill="none" xmlns="http://www.w3.org/2000/svg">
<path d="M20.2404 0.00609677C19.6605 -0.0546534 19.1342 0.344933 19.0631 0.921708C18.991 1.50052 19.401 2.02688 19.9787 2.09895C21.4104 2.27713 22.8091 2.78401 24.1367 3.34433C24.6794 3.56975 25.2938 3.3155 25.5189 2.78197C25.7445 2.24436 25.4932 1.62631 24.9566 1.39976C23.4497 0.765263 21.8625 0.207964 20.2404 0.00609677Z" fill="white"/>
<path d="M32.0828 8.57151C32.5473 8.21925 32.638 7.55697 32.2857 7.09347C31.298 5.79262 30.1372 4.63182 28.8363 3.64407C28.3718 3.29392 27.7116 3.38146 27.3583 3.847C27.006 4.3105 27.0966 4.97277 27.5612 5.32504C28.7096 6.19642 29.7334 7.22017 30.6047 8.36859C30.9581 8.83406 31.6194 8.92209 32.0828 8.57151Z" fill="white"/>
<path d="M33.1479 10.411C32.6113 10.6376 32.36 11.2556 32.5855 11.7932C33.1459 13.1208 33.7208 14.5898 33.899 16.0215C33.9682 16.5809 34.474 17.0072 35.0763 16.9371C35.6541 16.865 36.064 16.3387 35.9919 15.7599C35.79 14.1377 35.1645 12.4801 34.5301 10.9733C34.3036 10.4367 33.6845 10.1885 33.1479 10.411Z" fill="white"/>
<path d="M11.0436 1.39978C10.5069 1.62639 10.2556 2.24437 10.4812 2.78198C10.7068 3.31664 11.3221 3.56927 11.8634 3.34434C13.191 2.78402 14.5897 2.27714 16.0214 2.09897C16.5992 2.02689 17.0092 1.50053 16.937 0.921721C16.8649 0.344946 16.3365 -0.0547113 15.7598 0.00610914C14.1376 0.207977 12.5504 0.765275 11.0436 1.39978Z" fill="white"/>
<path d="M18 36.0001C27.0267 36.0001 34.8763 29.1845 35.9918 20.2403C36.0639 19.6625 35.6539 19.1351 35.0762 19.063C34.4953 18.9981 33.97 19.4009 33.8989 19.9786C32.9143 27.8703 25.9648 33.8908 18 33.8908C9.27619 33.8908 2.10938 26.7239 2.10938 18.0001C2.10938 14.1552 3.63495 10.4134 6.11719 7.55562V7.90479C6.11719 8.48776 6.58892 8.95948 7.17188 8.95948C7.75484 8.95948 8.22656 8.48776 8.22656 7.90479V4.922C8.22656 4.33904 7.75484 3.86731 7.17188 3.86731H4.18809C3.60513 3.86731 3.13341 4.33904 3.13341 4.922C3.13341 5.50496 3.60513 5.97598 4.18809 5.97598H4.69603C1.77462 9.24249 0 13.5531 0 18.0001C0 27.8868 8.11336 36.0001 18 36.0001Z" fill="white"/>
<path d="M5.27341 18.0002C5.27341 24.9792 11.0209 30.7267 18 30.7267C24.9791 30.7267 30.7266 24.9792 30.7266 18.0002C30.7266 11.0211 24.9791 5.27356 18 5.27356C11.0209 5.27356 5.27341 11.0211 5.27341 18.0002ZM19.0547 13.7814C19.0547 13.1984 19.5264 12.7267 20.1094 12.7267C20.6923 12.7267 21.1641 13.1984 21.1641 13.7814V16.9455H23.2734V13.7814C23.2734 13.1984 23.7452 12.7267 24.3281 12.7267C24.9111 12.7267 25.3828 13.1984 25.3828 13.7814V22.2189C25.3828 22.8019 24.9111 23.2736 24.3281 23.2736C23.7452 23.2736 23.2734 22.8019 23.2734 22.2189V19.0548H20.1094C19.5264 19.0548 19.0547 18.5831 19.0547 18.0002V13.7814ZM13.7812 14.8361C13.1993 14.8361 12.7265 15.3089 12.7265 15.8908C12.7265 16.4737 12.2548 16.9455 11.6719 16.9455C11.0889 16.9455 10.6172 16.4737 10.6172 15.8908C10.6172 14.146 12.0365 12.7267 13.7812 12.7267C15.526 12.7267 16.9453 14.146 16.9453 15.8908C16.9453 18.0002 15.5414 19.0528 14.4136 19.8984C13.7888 20.3673 13.3439 20.7423 13.0614 21.1642H15.8906C16.4736 21.1642 16.9453 21.6359 16.9453 22.2189C16.9453 22.8019 16.4736 23.2736 15.8906 23.2736H11.6719C11.0889 23.2736 10.6172 22.8019 10.6172 22.2189C10.6172 20.1095 12.021 19.0569 13.1488 18.2113C14.2262 17.4028 14.8359 16.896 14.8359 15.8908C14.8359 15.3088 14.3632 14.8361 13.7812 14.8361Z" fill="white"/>
</svg>
