<svg width="44" height="44" viewBox="0 0 44 44" fill="none" xmlns="http://www.w3.org/2000/svg">
<path d="M35.5458 16.9648C35.4659 16.8237 35.3499 16.7063 35.2098 16.6247C35.0697 16.543 34.9105 16.5 34.7483 16.5H22.74L24.7532 1.11765C24.7748 0.911783 24.7265 0.704635 24.6161 0.529559C24.5056 0.354483 24.3395 0.221668 24.1444 0.152498C23.9493 0.0833278 23.7366 0.0818278 23.5405 0.148239C23.3445 0.214651 23.1765 0.345109 23.0636 0.51861L8.46016 26.1032C8.37476 26.2421 8.32795 26.4013 8.32457 26.5643C8.32118 26.7273 8.36134 26.8883 8.44089 27.0306C8.52045 27.1729 8.63653 27.2915 8.77716 27.374C8.91779 27.4565 9.07788 27.5 9.24093 27.5H21.0698L19.4744 42.9055C19.4587 43.1107 19.5121 43.3152 19.626 43.4865C19.74 43.6578 19.908 43.7861 20.1032 43.8509C20.2985 43.9158 20.5098 43.9135 20.7036 43.8443C20.8974 43.7752 21.0626 43.6433 21.1727 43.4695L35.5348 17.8876C35.6181 17.7485 35.663 17.5898 35.6649 17.4277C35.6669 17.2655 35.6258 17.1058 35.5458 16.9648Z" fill="#252525"/>
</svg>
