<svg width="18" height="26" viewBox="0 0 18 26" fill="none" xmlns="http://www.w3.org/2000/svg">
<path d="M17.0043 10.0247C16.9571 9.9413 16.8886 9.87196 16.8058 9.82371C16.723 9.77547 16.6289 9.75005 16.5331 9.75004H9.43726L10.6269 0.660471C10.6397 0.538822 10.6111 0.416416 10.5459 0.312962C10.4806 0.209508 10.3824 0.131027 10.2671 0.0901533C10.1518 0.0492801 10.0262 0.0483937 9.91031 0.0876369C9.79446 0.12688 9.69519 0.203969 9.62847 0.306492L0.999181 15.4247C0.94872 15.5068 0.921063 15.6008 0.919062 15.6971C0.917061 15.7935 0.940789 15.8886 0.987799 15.9727C1.03481 16.0568 1.1034 16.1268 1.1865 16.1756C1.2696 16.2243 1.3642 16.25 1.46055 16.25H8.45035L7.50758 25.3533C7.49831 25.4745 7.52986 25.5954 7.5972 25.6966C7.66453 25.7978 7.76379 25.8736 7.87918 25.912C7.99457 25.9503 8.11945 25.9489 8.23397 25.9081C8.34849 25.8672 8.44606 25.7892 8.51115 25.6866L16.9979 10.57C17.0471 10.4878 17.0736 10.394 17.0747 10.2982C17.0759 10.2024 17.0516 10.108 17.0043 10.0247Z" fill="white"/>
</svg>
