<svg width="34" height="36" viewBox="0 0 34 36" fill="none" xmlns="http://www.w3.org/2000/svg">
<path d="M33.3787 6.61476C33.3015 5.45766 32.2216 4.60912 31.0645 4.7634C24.8161 5.61194 20.1877 2.4492 18.0278 0.520696C17.2564 -0.173565 16.0993 -0.173565 15.405 0.520696C13.2451 2.37206 8.61671 5.61194 2.36836 4.7634C1.21125 4.60912 0.131293 5.45766 0.0541531 6.61476C-0.254407 12.9403 0.208433 30.6825 16.7164 35.928C33.2244 30.6825 33.7644 12.9403 33.3787 6.61476ZM16.7164 27.3655C11.4709 27.3655 7.30532 23.1227 7.30532 17.9544C7.30532 12.786 11.4709 8.54327 16.7164 8.54327C21.9619 8.54327 26.1275 12.7088 26.1275 17.9544C26.1275 23.1999 21.9619 27.3655 16.7164 27.3655Z" fill="white"/>
<path d="M14.8651 15.5629C14.8651 14.9458 15.1736 14.483 15.5593 14.0973C15.8679 13.8659 16.2536 13.7116 16.6393 13.7116C17.4878 13.7116 18.4906 14.4058 18.4906 15.5629V17.0286H14.7879V15.5629H14.8651ZM20.4963 17.7229C20.342 17.4914 20.1877 17.3372 19.9563 17.1829C19.802 17.1057 19.6477 17.0286 19.4935 17.0286C19.4935 16.8743 19.4935 15.5629 19.4935 15.5629C19.4935 14.2516 18.4135 12.7859 16.7164 12.7859C15.1736 12.7859 13.9394 14.0201 13.9394 15.5629V17.0286C13.7851 17.0286 13.6308 17.1057 13.4765 17.1829C13.2451 17.3372 13.0137 17.4914 12.8594 17.7229C12.7051 17.9543 12.7051 18.1857 12.7051 18.4171V21.657C12.7051 22.5055 13.3994 23.0455 14.0937 23.0455H19.3392C19.6477 23.0455 19.8792 22.9684 20.1106 22.8141C20.342 22.6598 20.4963 22.5827 20.5734 22.3513C20.7277 22.1198 20.8049 21.8884 20.8049 21.5799V18.34C20.7277 18.1857 20.6506 17.9543 20.4963 17.7229ZM17.1021 20.1142L17.1793 20.7313C17.1793 20.9627 17.025 21.117 16.7936 21.117H16.5621C16.3307 21.117 16.1764 20.9627 16.1764 20.7313L16.2536 20.1142C16.0222 19.9599 15.945 19.7285 15.945 19.4971C15.945 19.1114 16.2536 18.8028 16.6393 18.8028C17.025 18.8028 17.3335 19.1114 17.3335 19.4971C17.4107 19.7285 17.3335 19.9599 17.1021 20.1142Z" fill="white"/>
</svg>
